HIERARCHY
ROOT root
{
	OFFSET	0	13.1	24.9
	CHANNELS 6  Xposition Yposition Zposition Xrotation Yrotation Zrotation
	JOINT spine_1
	{
		OFFSET	0	9.99999	0
		CHANNELS 3  Xrotation Yrotation Zrotation
		JOINT spine_2
		{
			OFFSET	0	112	-10
			CHANNELS 3  Xrotation Yrotation Zrotation
			JOINT spine_3
			{
				OFFSET	0	206.5	19.3
				CHANNELS 3  Xrotation Yrotation Zrotation
				JOINT spine_4
				{
					OFFSET	0	110.4	14.6
					CHANNELS 3  Xrotation Yrotation Zrotation
					JOINT neck_1
					{
						OFFSET	0	71.8	-50.3
						CHANNELS 3  Xrotation Yrotation Zrotation
						JOINT neck_2
						{
							OFFSET	0	86.2	-25.8
							CHANNELS 3  Xrotation Yrotation Zrotation
							JOINT head_ee
							{
								OFFSET	0	179.8	-8.7
								CHANNELS 3  Xrotation Yrotation Zrotation
								End Site
								{
									OFFSET	1	0	0
								}
							}
						}
					}
					JOINT left_clavicle
					{
						OFFSET	-43.2	22.4	-70.8
						CHANNELS 3  Xrotation Yrotation Zrotation
						JOINT left_shoulder
						{
							OFFSET	-93.9	-5.79999	48.7
							CHANNELS 3  Xrotation Yrotation Zrotation
							JOINT left_elbow
							{
								OFFSET	-291.4	-30.8	15.2
								CHANNELS 3  Xrotation Yrotation Zrotation
								JOINT left_lowarm_twist
								{
									OFFSET	-110.7	-3.89999	13.6
									CHANNELS 3  Xrotation Yrotation Zrotation
									JOINT left_hand
									{
										OFFSET	-110.7	-3.89999	13.6
										CHANNELS 3  Xrotation Yrotation Zrotation
										JOINT left_ee
										{
											OFFSET	-80.8	-5.10001	12.1
											CHANNELS 3  Xrotation Yrotation Zrotation
											End Site
											{
												OFFSET	1	0	0
											}
										}
									}
								}
							}
						}
					}
					JOINT right_clavicle
					{
						OFFSET	43.2	22.4	-70.8
						CHANNELS 3  Xrotation Yrotation Zrotation
						JOINT right_shoulder
						{
							OFFSET	93.9	-5.79999	48.7
							CHANNELS 3  Xrotation Yrotation Zrotation
							JOINT right_elbow
							{
								OFFSET	291.4	-30.8	15.2
								CHANNELS 3  Xrotation Yrotation Zrotation
								JOINT right_lowarm_twist
								{
									OFFSET	110.7	-3.89999	13.6
									CHANNELS 3  Xrotation Yrotation Zrotation
									JOINT right_hand
									{
										OFFSET	110.7	-3.89999	13.6
										CHANNELS 3  Xrotation Yrotation Zrotation
										JOINT right_ee
										{
											OFFSET	80.8	-5.10001	12.1
											CHANNELS 3  Xrotation Yrotation Zrotation
											End Site
											{
												OFFSET	1	0	0
											}
										}
									}
								}
							}
						}
					}
				}
			}
		}
	}
	JOINT left_hip
	{
		OFFSET	-82.8	-127.5	0.300001
		CHANNELS 3  Xrotation Yrotation Zrotation
		JOINT left_knee
		{
			OFFSET	-28.2	-396.7	2.2
			CHANNELS 3  Xrotation Yrotation Zrotation
			JOINT left_ankle
			{
				OFFSET	-11.7	-411.3	35.4
				CHANNELS 3  Xrotation Yrotation Zrotation
				JOINT left_toes
				{
					OFFSET	0	-60	-88.6
					CHANNELS 3  Xrotation Yrotation Zrotation
					JOINT left_foot_ee
					{
						OFFSET	-22.5	-16.5	-42.2
						CHANNELS 3  Xrotation Yrotation Zrotation
						End Site
						{
							OFFSET	1	0	0
						}
					}
				}
			}
		}
	}
	JOINT right_hip
	{
		OFFSET	82.8	-127.5	0.300001
		CHANNELS 3  Xrotation Yrotation Zrotation
		JOINT right_knee
		{
			OFFSET	28.2	-396.7	2.2
			CHANNELS 3  Xrotation Yrotation Zrotation
			JOINT right_ankle
			{
				OFFSET	11.7	-411.3	35.4
				CHANNELS 3  Xrotation Yrotation Zrotation
				JOINT right_toes
				{
					OFFSET	0	-60	-88.6
					CHANNELS 3  Xrotation Yrotation Zrotation
					JOINT right_foot_ee
					{
						OFFSET	22.5	-16.5	-42.2
						CHANNELS 3  Xrotation Yrotation Zrotation
						End Site
						{
							OFFSET	1	0	0
						}
					}
				}
			}
		}
	}
}
MOTION
Frames: 5
Frame Time: 0.02
3177.02 653.055 -1669.29 -8.86751423072 19.307869177 9.81616398697 3.08064 -0.576333 -0.712482 3.08077 -0.529829 -0.74771 3.08769 -0.40574 -0.821681 3.08714 -0.530413 -0.747295 -5.80057 15.4897 -0.860803 -5.67341 29.2786 2.01259 -0.0 0.0 -0.0 0.920576 14.3634 3.18054 -23.5101 -17.8306 88.1834 0.430115 -12.0281 0.0453139 9.88738 0.242038 -1.23827 -1.3297 28.7533 4.02942 -0.0 0.0 -0.0 11.8297 20.7415 -23.4892 -90.0692 74.3447 18.6214 0.203132 5.74623 -0.0101946 -21.423 1.2251 -2.43402 -12.3611 -33.8499 67.8477 0.0 0.0 0.0 17.966 -35.9303 -16.1007 -0.201857 0.008259 0.029876 24.9221 15.1621 -3.3584 -37.6183 0.0 0.0 -0.0 0.0 -0.0 4.09592 34.5983 -10.6422 -19.1396 -0.304884 -2.90767 40.4377 -24.0948 5.18076 26.5471 -0.0 -0.0 0.0 0.0 0.0 
3177.02 653.055 -1669.29 -8.88757417158 19.6707565012 9.87628980581 3.08064 -0.576333 -0.712482 3.08077 -0.529829 -0.74771 3.08769 -0.40574 -0.821681 3.08714 -0.530413 -0.747295 -5.80057 15.4897 -0.860803 -5.67341 29.2786 2.01259 -0.0 0.0 -0.0 0.920576 14.3634 3.18054 -23.5101 -17.8306 88.1834 0.430115 -12.0281 0.0453139 9.88738 0.242038 -1.23827 -1.3297 28.7533 4.02942 -0.0 0.0 -0.0 11.8297 20.7415 -23.4892 -90.0692 74.3447 18.6214 0.203132 5.74623 -0.0101946 -21.423 1.2251 -2.43402 -12.3611 -33.8499 67.8477 0.0 0.0 0.0 17.966 -35.9303 -16.1007 -0.201857 0.008259 0.029876 24.9221 15.1621 -3.3584 -37.6183 0.0 0.0 -0.0 0.0 -0.0 4.09592 34.5983 -10.6422 -19.1396 -0.304884 -2.90767 40.4377 -24.0948 5.18076 26.5471 -0.0 -0.0 0.0 0.0 0.0 
3177.02 653.055 -1669.29 -8.90298239118 19.9440944239 9.92176044759 3.08064 -0.576333 -0.712482 3.08077 -0.529829 -0.74771 3.08769 -0.40574 -0.821681 3.08714 -0.530413 -0.747295 -5.80057 15.4897 -0.860803 -5.67341 29.2786 2.01259 -0.0 0.0 -0.0 0.920576 14.3634 3.18054 -23.5101 -17.8306 88.1834 0.430115 -12.0281 0.0453139 9.88738 0.242038 -1.23827 -1.3297 28.7533 4.02942 -0.0 0.0 -0.0 11.8297 20.7415 -23.4892 -90.0692 74.3447 18.6214 0.203132 5.74623 -0.0101946 -21.423 1.2251 -2.43402 -12.3611 -33.8499 67.8477 0.0 0.0 0.0 17.966 -35.9303 -16.1007 -0.201857 0.008259 0.029876 24.9221 15.1621 -3.3584 -37.6183 0.0 0.0 -0.0 0.0 -0.0 4.09592 34.5983 -10.6422 -19.1396 -0.304884 -2.90767 40.4377 -24.0948 5.18076 26.5471 -0.0 -0.0 0.0 0.0 0.0 
3177.02 653.055 -1669.29 -8.91567939968 20.1659631057 9.95878626072 3.08064 -0.576333 -0.712482 3.08077 -0.529829 -0.74771 3.08769 -0.40574 -0.821681 3.08714 -0.530413 -0.747295 -5.80057 15.4897 -0.860803 -5.67341 29.2786 2.01259 -0.0 0.0 -0.0 0.920576 14.3634 3.18054 -23.5101 -17.8306 88.1834 0.430115 -12.0281 0.0453139 9.88738 0.242038 -1.23827 -1.3297 28.7533 4.02942 -0.0 0.0 -0.0 11.8297 20.7415 -23.4892 -90.0692 74.3447 18.6214 0.203132 5.74623 -0.0101946 -21.423 1.2251 -2.43402 -12.3611 -33.8499 67.8477 0.0 0.0 0.0 17.966 -35.9303 -16.1007 -0.201857 0.008259 0.029876 24.9221 15.1621 -3.3584 -37.6183 0.0 0.0 -0.0 0.0 -0.0 4.09592 34.5983 -10.6422 -19.1396 -0.304884 -2.90767 40.4377 -24.0948 5.18076 26.5471 -0.0 -0.0 0.0 0.0 0.0 
3140.63903354 659.566 -1707.13814632 -7.60296918564 17.1677581504 9.54180540175 2.90795 -0.480701 -0.941148 2.90835 -0.419842 -0.969825 2.9154 -0.259126 -1.02454 2.91418 -0.417673 -0.970761 -5.80014 14.2717 0.261951 -5.70867 26.1987 2.91756 -0.0 0.0 -0.0 1.68456 7.41993 3.88069 -15.8221 -14.3427 81.8617 0.397621 -11.1431 0.0387879 12.5193 0.270164 -1.57324 -0.819984 28.6807 6.75317 -0.0 0.0 -0.0 10.8806 19.5448 -21.4162 -89.2725 76.6262 12.4688 0.197092 5.57646 -0.00959877 -22.4967 1.3097 -2.54248 -12.1179 -33.3899 65.2632 0.0 0.0 0.0 15.6912 -35.0723 -14.5978 -4.05826 0.145688 0.605651 35.0731 20.0166 -4.54842 -34.203 0.0 0.0 -0.0 0.0 -0.0 4.39368 35.2135 -10.4491 -24.3397 -0.218938 -3.70071 38.5239 -25.7437 5.0477 27.5115 -0.0 -0.0 0.0 0.0 0.0 
